<mxfile host="app.diagrams.net" modified="2022-03-11T02:09:26.339Z" agent="5.0 (Windows NT 10.0; Win64; x64) AppleWebKit/537.36 (KHTML, like Gecko) Chrome/99.0.4844.51 Safari/537.36" etag="GbsJshme3lnDGBTtFmMm" version="17.1.1" type="github">
  <diagram id="v1T3dZHf-TdDZQbO6rz4" name="Page-1">
    <mxGraphModel dx="1038" dy="547" grid="1" gridSize="10" guides="1" tooltips="1" connect="1" arrows="1" fold="1" page="1" pageScale="1" pageWidth="827" pageHeight="1169" math="0" shadow="0">
      <root>
        <mxCell id="0" />
        <mxCell id="1" parent="0" />
        <mxCell id="klzLCo4Rc163PmEyebI6-1" value="CONFIG SERVER" style="rounded=0;whiteSpace=wrap;html=1;" vertex="1" parent="1">
          <mxGeometry x="270" y="20" width="300" height="60" as="geometry" />
        </mxCell>
        <mxCell id="klzLCo4Rc163PmEyebI6-3" value="CUSTOMER" style="swimlane;" vertex="1" parent="1">
          <mxGeometry x="90" y="190" width="200" height="50" as="geometry" />
        </mxCell>
        <mxCell id="klzLCo4Rc163PmEyebI6-5" value="TYPECUSTOMER" style="swimlane;" vertex="1" parent="1">
          <mxGeometry x="90" y="110" width="200" height="40" as="geometry" />
        </mxCell>
        <mxCell id="klzLCo4Rc163PmEyebI6-7" value="" style="endArrow=classic;html=1;rounded=0;" edge="1" parent="1">
          <mxGeometry width="50" height="50" relative="1" as="geometry">
            <mxPoint x="189.5" y="150" as="sourcePoint" />
            <mxPoint x="189.5" y="190" as="targetPoint" />
          </mxGeometry>
        </mxCell>
        <mxCell id="klzLCo4Rc163PmEyebI6-8" value="TYPEACCOUNT" style="swimlane;" vertex="1" parent="1">
          <mxGeometry x="570" y="110" width="200" height="40" as="geometry" />
        </mxCell>
        <mxCell id="klzLCo4Rc163PmEyebI6-9" value="ACCOUNT" style="swimlane;" vertex="1" parent="1">
          <mxGeometry x="570" y="175" width="200" height="50" as="geometry" />
        </mxCell>
        <mxCell id="klzLCo4Rc163PmEyebI6-13" value="CREDITS" style="swimlane;" vertex="1" parent="1">
          <mxGeometry x="340" y="180" width="200" height="40" as="geometry" />
        </mxCell>
        <mxCell id="klzLCo4Rc163PmEyebI6-14" value="" style="endArrow=classic;html=1;rounded=0;" edge="1" parent="1">
          <mxGeometry width="50" height="50" relative="1" as="geometry">
            <mxPoint x="290" y="140" as="sourcePoint" />
            <mxPoint x="390" y="160" as="targetPoint" />
          </mxGeometry>
        </mxCell>
        <mxCell id="klzLCo4Rc163PmEyebI6-15" value="" style="endArrow=classic;html=1;rounded=0;" edge="1" parent="1">
          <mxGeometry width="50" height="50" relative="1" as="geometry">
            <mxPoint x="550" y="130" as="sourcePoint" />
            <mxPoint x="480" y="160" as="targetPoint" />
          </mxGeometry>
        </mxCell>
      </root>
    </mxGraphModel>
  </diagram>
</mxfile>
